<?xml version="1.0" encoding="UTF-8"?>
<svg height="100%" width="100%" viewBox="0,0,2048,2048" focusable="false">
   <path type="path" class="style_HighContrast" d="M 1963 85 v 1878 h -1878 v -1878 m 1835 1524 l -788 -746 l -576 662 l -428 -428 v 823 h 1792 z"></path>
   <path type="path" class="style_m20" d="M 1941 1941 h -1834 v -1834 h 1834 z"></path>
   <path type="path" class="style_m22" d="M 1963 85 v 1878 h -1878 v -1878 m 1835 43 h -1792 v 1792 h 1792 z"></path>
   <path type="path" class="style_m26" d="M 1941 107 v 1493 l -810 -768 l -576 661 l -448 -448 v -938 z"></path>
   <path type="path" class="style_m25" d="M 1963 1649 l -831 -786 l -576 662 l -471 -467 v -973 h 1878 m -43 1465 v -1422 h -1792 v 908 l 426 426 l 575 -661 z"></path>
</svg>