<?xml version="1.0" encoding="UTF-8"?>
<svg height="100%" width="100%" viewBox="0,0,2048,2048" focusable="false">
   <path type="path" class="style_HighContrast" d="M 1963 896 v 1067 h -1878 v -1878 h 43 v 989 l 253 256 l 544 -345 l 74 -91 l 644 466 l 277 -464 m 0 718 l -913 -662 l -476 591 l -403 -408 v 785 h 1792 z" />
   <path type="path" class="style_m20" d="M 530 1511 l 473 -588 l 914 656 l 24 53 v 304 h -1834 l 2 -864 z" />
   <path type="path" class="style_m26" d="M 1939 923 v 658 l -288 -192 m -1272 -40 l 525 -312 l -374 474 z" />
   <path type="path" class="style_m25" d="M 361 1342 l 572 -362 l 22 36 l -571 362 m 1248 1 l 287 -483 l 37 22 l -287 482 z" />
   <path type="path" class="style_m22" d="M 1963 896 v 1067 h -1878 v -1878 h 43 v 989 l 400 405 l 471 -585 l 921 667 v -665 m 0 1024 v -306 l -913 -662 l -476 591 l -403 -408 v 785 z" />
</svg>