<svg height="100%" width="100%" viewBox="0 0 2048 2048" focusable="false">
   <path type="path" class="style_HighContrast" d="M 1963 1920 v 43 h -1878 v -1878 h 43 v 1835 h 171 v -1323 h 341 v 512 h 299 v 811 h 170 v -1067 h 299 v -640 h 341 v 1707 m -853 0 v -768 h -256 v 768 m 1067 0 v -1664 h -256 v 1664 z" />
   <path type="path" class="style_m20" d="M 1728 1941 h -299 v -1706 h 299 m -811 1706 h -298 v -810 h 298 z" />
   <path type="path" class="style_m26" d="M 619 1941 h -299 v -1322 h 299 z" />
   <path type="path" class="style_m25" d="M 640 1941 h -43 v -1301 h -256 v 1301 h -42 v -1344 h 341 z" />
   <path type="path" class="style_m21" d="M 1429 1941 h -298 v -1066 h 298 z" />
   <path type="path" class="style_m23" d="M 1432 896 h -280 v 1050 h -43 v -1093 h 323 z" />
   <path type="path" class="style_m22" d="M 1963 1920 v 43 h -1878 v -1878 h 43 v 1835 h 768 v -768 h -256 v -43 h 299 v 811 h 469 v -1707 h 341 v 1707 m -42 0 v -1664 h -256 v 1664 z" />
</svg>