<?xml version="1.0" encoding="UTF-8"?>
<svg height="100%" width="100%" viewBox="0,0,2048,2048" focusable="false">
   <path type="path" class="style_HighContrast" d="M 128 1920 h 1835 v 43 h -1878 v -214 h -42 v -170 h 42 v -256 h -42 v -171 h 42 v -1067 h 43 v 1067 h 55 l 457 -457 v -98 h 171 v 117 l 99 73 l 175 -190 h -18 v -170 h 170 v 140 l 233 233 l 280 -373 v -171 h 170 v 171 h -118 l -302 402 l 194 195 h 98 v 171 h -171 v -171 h 13 l -160 -160 l -109 144 v 144 h -170 v -104 l -279 -205 l -703 759 v 147 h -85 m 1015 -1152 l -199 215 l 251 184 v -15 h 139 l 110 -147 l -237 -237 m -1079 726 v 256 h 48 l 705 -761 l -70 -52 v 2 h -171 v -12 l -427 426 v 141 z" />
   <path type="path" class="style_m22" d="M 128 1920 h 1835 v 43 h -1878 v -640 h -42 v -171 h 42 v -1067 h 43 v 1067 h 55 l 457 -457 v -98 h 171 v 117 l 384 282 v -15 h 139 l 416 -554 v -171 h 170 v 171 h -118 l -437 581 v 144 h -170 v -104 l -384 -282 v 2 h -171 v -12 l -427 426 v 141 h -85 z" />
   <path type="path" class="style_m24" d="M 1694 1024 h 98 v 171 h -171 v -171 h 13 l -427 -427 h -64 l -930 1005 v 147 h -170 v -170 h 133 l 909 -982 h -18 v -170 h 170 v 140 z" />
</svg>