<?xml version="1.0" encoding="UTF-8"?>
<svg height="100%" width="100%" viewBox="0,0,2048,2048" focusable="false">
   <path type="path" class="style_HighContrast" d="M 1963 1920 v 43 h -1878 v -1878 h 43 v 1037 l 571 -570 l 535 259 l 651 -550 l 27 33 l -669 565 l -534 -259 l -581 582 v 452 l 573 -574 l 576 424 l 563 -751 l 32 27 l -587 781 l -578 -425 l -579 578 v 226 z" />
   <path type="path" class="style_m24" d="M 121 1189 l -29 -31 l 607 -606 l 535 259 l 651 -550 l 27 33 l -669 565 l -534 -259 z" />
   <path type="path" class="style_m22" d="M 1963 1920 v 43 h -1878 v -1878 h 43 v 1549 l 573 -574 l 576 424 l 563 -751 l 32 27 l -587 781 l -578 -425 l -579 578 v 226 z" />
</svg>