<?xml version="1.0" encoding="UTF-8"?>
<svg height="100%" width="100%" viewBox="0,0,2048,2048" focusable="false">
   <path type="path" class="style_HighContrast" d="M 1963 1920 v 43 h -1878 v -214 h -42 v -170 h 42 v -1195 h -42 v -171 h 42 v -128 h 43 v 128 h 85 v 43 h 384 v -43 h 171 v 43 h 427 v -43 h 170 v 43 h 384 v -43 h 171 v 171 h -171 v -85 h -384 v 85 h -170 v -85 h -427 v 85 h -171 v -85 h -384 v 85 h -85 v 1195 h 55 l 457 -457 v -98 h 171 v 117 l 384 282 v -15 h 139 l 415 -555 v -170 h 171 v 170 h -118 l -437 582 v 144 h -170 v -104 l -384 -283 v 3 h -171 v -13 l -427 427 v 140 h -85 v 171 z" />
   <path type="path" class="style_m22" d="M 1963 1920 v 43 h -1878 v -214 h -42 v -170 h 42 v -1494 h 43 v 1494 h 55 l 457 -457 v -98 h 171 v 117 l 384 282 v -15 h 139 l 415 -555 v -170 h 171 v 170 h -118 l -437 582 v 144 h -170 v -104 l -384 -283 v 3 h -171 v -13 l -427 427 v 140 h -85 v 171 z" />
   <path type="path" class="style_m24" d="M 1920 213 v 171 h -171 v -85 h -384 v 85 h -170 v -85 h -427 v 85 h -171 v -85 h -384 v 85 h -170 v -171 h 170 v 43 h 384 v -43 h 171 v 43 h 427 v -43 h 170 v 43 h 384 v -43 z" />
</svg>