<?xml version="1.0" encoding="UTF-8"?>
<svg height="100%" width="100%" viewBox="0,0,2048,2048" focusable="false">
   <path type="path" class="style_HighContrast" d="M 1963 1920 v 43 h -1878 v -1878 h 43 v 1165 l 574 -574 l 197 144 l 402 -402 l 361 360 l 263 -301 l 32 28 l -265 303 l 264 265 l -30 30 l -262 -263 l -317 362 l -444 -326 l -775 776 v 268 m 806 -1074 l 407 299 l 292 -335 l -332 -332 m -1173 832 v 281 l 740 -740 l -162 -119 z" />
   <path type="path" class="style_m24" d="M 122 1658 l -30 -30 l 1209 -1210 l 655 655 l -30 30 l -625 -625 z" />
   <path type="path" class="style_m22" d="M 1963 1920 v 43 h -1878 v -1878 h 43 v 1165 l 574 -574 l 639 469 l 584 -668 l 32 28 l -610 697 l -641 -470 l -578 578 v 610 z" />
</svg>