<?xml version="1.0" encoding="UTF-8"?>
<svg height="100%" width="100%" viewBox="0,0,2048,2048" focusable="false">
   <path type="path" class="style_HighContrast" d="M 1024 85 q 129 0 249 34 q 120 33 225 95 q 104 61 190 147 q 85 85 147 190 q 61 104 95 224 q 33 120 33 249 q 0 104 -22 202 q -22 98 -63 187 q -41 89 -98 168 q -58 78 -130 142 q -125 112 -284 176 q -160 64 -342 64 q -130 0 -249 -33 q -120 -34 -224 -95 q -105 -62 -191 -147 q -86 -86 -147 -190 q -61 -105 -94 -225 q -34 -120 -34 -249 q 0 -126 33 -244 q 33 -118 93 -221 q 59 -104 144 -190 q 84 -86 187 -148 q 102 -62 221 -97 q 118 -36 247 -39 m 307 1305 q 81 -65 129 -159 q 47 -95 47 -207 q 0 -97 -37 -182 q -37 -86 -100 -149 q -64 -64 -149 -101 q -86 -37 -183 -37 q -11 0 -21 1 q -11 0 -22 1 q -90 8 -167 48 q -78 39 -135 102 q -58 62 -91 144 q -33 81 -33 173 q 0 97 37 183 q 37 85 101 149 q 63 63 149 100 q 85 37 182 37 q 84 0 159 -27 q 74 -28 134 -76 m -293 530 q 173 0 325 -60 q 151 -61 270 -168 l -272 -272 q -66 54 -148 85 q -82 31 -175 31 q -106 0 -199 -40 q -94 -40 -163 -109 q -70 -70 -110 -163 q -40 -94 -40 -200 q 0 -100 37 -189 q 36 -90 100 -158 q 63 -69 149 -112 q 85 -43 183 -51 v -384 q -119 6 -228 41 q -109 35 -204 94 q -95 59 -172 140 q -78 81 -133 179 q -56 97 -86 209 q -30 111 -30 231 q 0 124 32 239 q 32 114 91 214 q 58 99 140 181 q 81 81 181 140 q 99 58 214 90 q 114 32 238 32 z" />
   <path type="path" class="style_m20" d="M 1658 1692 q -125 119 -286 187 q -162 68 -348 68 q -127 0 -244 -33 q -118 -33 -220 -93 q -103 -60 -186 -143 q -84 -84 -144 -186 q -60 -103 -93 -220 q -33 -118 -33 -245 q 0 -125 32 -241 q 32 -116 90 -217 q 58 -101 140 -184 q 81 -84 181 -144 q 99 -61 214 -95 q 115 -35 239 -38 v 429 q -97 5 -181 45 q -85 40 -148 106 q -63 65 -99 152 q -36 86 -36 184 q 0 101 39 190 q 38 89 104 155 q 66 66 155 105 q 89 38 190 38 q 91 0 171 -30 q 80 -31 144 -85 z" />
   <path type="path" class="style_m22" d="M 1364 1406 q -69 61 -155 96 q -86 34 -185 34 q -106 0 -199 -40 q -94 -40 -163 -109 q -70 -70 -110 -163 q -40 -94 -40 -200 q 0 -103 39 -194 q 38 -92 105 -161 q 66 -69 156 -110 q 89 -42 191 -46 v 42 q -94 4 -175 43 q -82 38 -142 101 q -61 63 -96 147 q -35 84 -35 178 q 0 97 37 183 q 37 85 101 149 q 63 63 149 100 q 85 37 182 37 q 90 0 169 -31 q 79 -31 141 -86 m 332 333 q -127 118 -291 186 q -164 68 -351 68 q -130 0 -249 -33 q -120 -34 -224 -95 q -105 -62 -191 -147 q -86 -86 -147 -190 q -61 -105 -94 -225 q -34 -120 -34 -249 q 0 -128 33 -246 q 32 -119 92 -222 q 59 -103 143 -188 q 84 -86 186 -147 q 102 -62 220 -97 q 117 -35 244 -38 v 43 q -121 3 -233 37 q -112 33 -209 92 q -98 58 -177 140 q -80 81 -137 180 q -57 98 -88 211 q -31 113 -31 235 q 0 124 32 239 q 32 114 91 214 q 58 99 140 181 q 81 81 181 140 q 99 58 214 90 q 114 32 238 32 q 179 0 335 -64 q 155 -65 276 -178 z" />
   <path type="path" class="style_m26" d="M 1515 1024 q 0 -102 -38 -191 q -39 -89 -106 -156 q -67 -67 -156 -105 q -89 -39 -191 -39 q -5 0 -10 1 q -6 0 -11 0 v -426 q 5 0 11 0 q 5 -1 10 -1 q 127 0 244 33 q 117 32 219 92 q 102 60 186 144 q 83 83 143 185 q 60 102 93 219 q 32 117 32 244 q 0 99 -20 193 q -21 93 -58 178 q -38 85 -92 160 q -54 75 -121 138 l -302 -301 q 77 -68 122 -162 q 45 -95 45 -206 z" />
   <path type="path" class="style_m25" d="M 1024 85 q 129 0 249 34 q 120 33 225 95 q 104 61 190 147 q 85 85 147 190 q 61 104 95 224 q 33 120 33 249 q 0 104 -22 202 q -22 98 -63 188 q -41 89 -98 168 q -58 78 -130 142 l -333 -334 q 81 -65 129 -159 q 47 -95 47 -207 q 0 -97 -37 -182 q -37 -86 -100 -149 q -64 -64 -149 -101 q -86 -37 -183 -37 q -11 0 -21 1 q -11 0 -22 1 v -471 q 11 0 22 0 q 10 -1 21 -1 m 627 1579 q 62 -61 112 -133 q 50 -73 85 -154 q 35 -81 54 -170 q 18 -89 18 -183 q 0 -124 -32 -238 q -32 -115 -90 -214 q -59 -100 -140 -181 q -82 -82 -181 -140 q -100 -59 -214 -91 q -115 -32 -239 -32 v 384 q 106 0 200 40 q 93 40 163 110 q 69 69 109 163 q 40 93 40 199 q 0 109 -42 204 q -42 94 -114 164 z" />
</svg>