<?xml version="1.0" encoding="UTF-8"?>
<svg height="100%" width="100%" viewBox="0,0,2048,2048" focusable="false">
   <path type="path" class="style_HighContrast" d="M 1024 85 q 129 0 249 34 q 120 33 225 95 q 104 61 190 147 q 85 85 147 190 q 61 104 95 224 q 33 120 33 249 q 0 130 -33 250 q -34 119 -95 224 q -62 104 -147 190 q -86 86 -190 147 q -105 61 -225 95 q -120 33 -249 33 q -130 0 -249 -33 q -120 -34 -224 -95 q -105 -62 -191 -147 q -86 -86 -147 -190 q -61 -105 -94 -225 q -34 -120 -34 -249 q 0 -126 32 -243 q 31 -117 89 -219 q 58 -102 140 -187 q 82 -86 182 -148 q 100 -62 217 -99 q 116 -37 243 -43 m -862 939 q 0 124 32 238 q 32 114 91 214 q 58 99 140 181 q 82 82 182 141 q 99 58 214 90 q 114 32 237 32 q 173 0 325 -61 q 151 -61 272 -167 l -638 -638 v -924 q -121 6 -230 41 q -109 35 -204 94 q -95 59 -172 140 q -78 81 -133 179 q -55 97 -85 209 q -31 111 -31 231 z" />
   <path type="path" class="style_m20" d="M 1941 1024 q 0 127 -32 244 q -33 117 -93 219 q -60 102 -143 186 q -84 83 -186 143 q -102 60 -219 93 q -117 32 -244 32 q -127 0 -244 -32 q -117 -33 -219 -93 q -102 -60 -185 -143 q -84 -84 -144 -186 q -60 -102 -92 -219 q -33 -117 -33 -244 q 0 -127 33 -244 q 32 -117 92 -219 q 60 -102 144 -185 q 83 -84 185 -144 q 102 -60 219 -92 q 117 -33 244 -33 q 127 0 244 33 q 117 32 219 92 q 102 60 186 144 q 83 83 143 185 q 60 102 93 219 q 32 117 32 244 z" />
   <path type="path" class="style_m22" d="M 1666 1709 q -127 118 -291 186 q -164 68 -351 68 q -130 0 -249 -33 q -120 -34 -224 -95 q -105 -62 -191 -147 q -86 -86 -147 -190 q -61 -105 -94 -225 q -34 -120 -34 -249 q 0 -128 33 -246 q 32 -119 92 -222 q 59 -103 143 -188 q 84 -86 186 -147 q 102 -62 220 -97 q 117 -35 244 -38 v 43 q -121 3 -233 37 q -112 33 -209 92 q -97 59 -177 140 q -80 81 -137 180 q -57 98 -88 211 q -31 113 -31 235 q 0 124 32 238 q 32 114 91 214 q 58 99 140 181 q 82 82 182 141 q 99 58 214 90 q 114 32 237 32 q 178 0 334 -65 q 156 -65 277 -177 z" />
   <path type="path" class="style_m26" d="M 1024 107 q 127 0 244 33 q 117 32 219 92 q 102 60 186 144 q 83 83 143 185 q 60 102 93 219 q 32 117 32 244 q 0 99 -20 193 q -21 93 -58 178 q -38 85 -92 160 q -54 75 -121 138 l -647 -648 v -937 q 5 0 11 0 q 5 -1 10 -1 z" />
   <path type="path" class="style_m25" d="M 1024 85 q 129 0 249 34 q 120 33 225 95 q 104 61 190 147 q 85 85 147 190 q 61 104 95 224 q 33 120 33 249 q 0 104 -22 202 q -22 98 -62 187 q -41 89 -99 168 q -58 78 -130 142 q -9 -8 -15 -15 q -6 -6 -10 -10 q -5 -5 -5 -6 l -639 -638 v -969 m 670 1578 q 62 -61 112 -133 q 50 -72 85 -153 q 35 -82 54 -170 q 18 -89 18 -183 q 0 -123 -32 -237 q -32 -115 -90 -214 q -59 -100 -141 -182 q -82 -82 -181 -140 q -100 -59 -214 -91 q -115 -32 -238 -32 v 908 z" />
</svg>