<?xml version="1.0" encoding="UTF-8"?>
<svg height="100%" width="100%" viewBox="0,0,2048,2048" focusable="false">
   <path type="path" class="style_HighContrast" d="M 384 213 q 27 0 50 10 q 23 10 41 28 q 17 17 27 41 q 10 23 10 49 q 0 27 -10 50 q -10 23 -27 41 q -18 17 -41 27 q -23 10 -50 10 q -27 0 -50 -10 q -23 -10 -40 -27 q -18 -18 -28 -41 q -10 -23 -10 -50 q 0 -26 10 -49 q 10 -24 28 -41 q 17 -18 40 -28 q 23 -10 50 -10 m 0 214 q 18 0 34 -7 q 15 -7 27 -18 q 11 -12 18 -27 q 6 -16 6 -34 q 0 -35 -25 -60 q -25 -25 -60 -25 q -35 0 -60 25 q -25 25 -25 60 q 0 18 7 34 q 6 15 18 27 q 11 11 27 18 q 15 7 33 7 m 1323 42 q 26 0 50 10 q 23 10 41 28 q 17 17 27 41 q 10 23 10 49 q 0 27 -10 50 q -10 23 -27 41 q -18 17 -41 27 q -24 10 -50 10 q -27 0 -50 -10 q -23 -10 -40 -27 q -18 -18 -28 -41 q -10 -23 -10 -50 q 0 -26 10 -49 q 10 -24 28 -41 q 17 -18 40 -28 q 23 -10 50 -10 m 0 214 q 18 0 34 -7 q 15 -7 27 -18 q 11 -12 18 -27 q 6 -16 6 -34 q 0 -35 -25 -60 q -25 -25 -60 -25 q -18 0 -33 7 q -16 6 -27 18 q -12 11 -19 27 q -7 15 -7 33 q 0 18 7 34 q 7 15 19 27 q 11 11 27 18 q 15 7 33 7 m -939 298 q 27 0 50 10 q 23 10 41 28 q 17 17 27 41 q 10 23 10 49 q 0 27 -10 50 q -10 23 -27 41 q -18 17 -41 27 q -23 10 -50 10 q -27 0 -50 -10 q -23 -10 -40 -27 q -18 -18 -28 -41 q -10 -23 -10 -50 q 0 -26 10 -49 q 10 -24 28 -41 q 17 -18 40 -28 q 23 -10 50 -10 m 0 214 q 18 0 34 -7 q 15 -7 27 -18 q 11 -12 18 -27 q 6 -16 6 -34 q 0 -35 -25 -60 q -25 -25 -60 -25 q -35 0 -60 25 q -25 25 -25 60 q 0 18 7 34 q 6 15 18 27 q 11 11 27 18 q 15 7 33 7 m 427 128 q 26 0 50 10 q 23 10 41 28 q 17 17 27 40 q 10 23 10 50 q 0 26 -10 50 q -10 23 -27 41 q -18 17 -41 27 q -24 10 -50 10 q -27 0 -50 -10 q -23 -10 -40 -27 q -18 -18 -28 -41 q -10 -24 -10 -50 q 0 -27 10 -50 q 10 -23 28 -40 q 17 -18 40 -28 q 23 -10 50 -10 m 0 213 q 35 0 60 -25 q 25 -25 25 -60 q 0 -18 -6 -33 q -7 -16 -18 -27 q -12 -12 -27 -19 q -16 -7 -34 -7 q -18 0 -33 7 q -16 7 -27 19 q -12 11 -19 27 q -7 15 -7 33 q 0 18 7 34 q 7 15 19 27 q 11 11 27 18 q 15 6 33 6 m 768 384 v 43 h -1878 v -1878 h 43 v 1835 m 1579 -213 q -27 0 -50 -10 q -23 -10 -40 -27 q -18 -18 -28 -41 q -10 -24 -10 -50 q 0 -27 10 -50 q 10 -23 28 -40 q 17 -18 40 -28 q 23 -10 50 -10 q 26 0 50 10 q 23 10 41 28 q 17 17 27 40 q 10 23 10 50 q 0 26 -10 50 q -10 23 -27 41 q -18 17 -41 27 q -24 10 -50 10 m -854 -982 q -26 0 -49 -10 q -24 -10 -41 -27 q -18 -18 -28 -41 q -10 -23 -10 -50 q 0 -26 10 -49 q 10 -24 28 -41 q 17 -18 41 -28 q 23 -10 49 -10 q 27 0 50 10 q 23 10 41 28 q 17 17 27 41 q 10 23 10 49 q 0 27 -10 50 q -10 23 -27 41 q -18 17 -41 27 q -23 10 -50 10 m -469 982 q -27 0 -50 -10 q -23 -10 -40 -27 q -18 -18 -28 -41 q -10 -24 -10 -50 q 0 -27 10 -50 q 10 -23 28 -40 q 17 -18 40 -28 q 23 -10 50 -10 q 27 0 50 10 q 23 10 41 28 q 17 17 27 40 q 10 23 10 50 q 0 26 -10 50 q -10 23 -27 41 q -18 17 -41 27 q -23 10 -50 10 m 1024 -640 q -27 0 -50 -10 q -23 -10 -40 -27 q -18 -18 -28 -41 q -10 -24 -10 -50 q 0 -27 10 -50 q 10 -23 28 -40 q 17 -18 40 -28 q 23 -10 50 -10 q 27 0 50 10 q 23 10 41 28 q 17 17 27 40 q 10 23 10 50 q 0 26 -10 50 q -10 23 -27 41 q -18 17 -41 27 q -23 10 -50 10 z" />
   <path type="path" class="style_m20" d="M 1195 1344 q 22 0 42 9 q 19 8 33 23 q 14 14 23 34 q 8 19 8 41 q 0 45 -30 76 q -31 30 -76 30 q -22 0 -41 -8 q -20 -9 -34 -23 q -15 -14 -23 -33 q -9 -20 -9 -42 q 0 -22 9 -41 q 8 -20 23 -34 q 14 -15 34 -23 q 19 -9 41 -9 m -427 -341 q 22 0 42 9 q 19 8 34 22 q 14 14 23 34 q 8 19 8 41 q 0 22 -8 42 q -9 19 -23 34 q -15 14 -34 23 q -20 8 -42 8 q -22 0 -41 -8 q -20 -9 -34 -23 q -15 -15 -23 -34 q -9 -20 -9 -42 q 0 -22 9 -41 q 8 -20 23 -34 q 14 -14 34 -22 q 19 -9 41 -9 m 939 -512 q 45 0 76 31 q 30 30 30 75 q 0 22 -8 42 q -9 19 -23 34 q -14 14 -33 23 q -20 8 -42 8 q -22 0 -41 -8 q -20 -9 -34 -23 q -15 -15 -23 -34 q -9 -20 -9 -42 q 0 -22 9 -41 q 8 -20 23 -34 q 14 -14 34 -22 q 19 -9 41 -9 m -1323 -256 q 22 0 42 9 q 19 8 34 22 q 14 14 23 34 q 8 19 8 41 q 0 22 -8 42 q -9 19 -23 34 q -15 14 -34 23 q -20 8 -42 8 q -22 0 -41 -8 q -20 -9 -34 -23 q -15 -15 -23 -34 q -9 -20 -9 -42 q 0 -22 9 -41 q 8 -20 23 -34 q 14 -14 34 -22 q 19 -9 41 -9 z" />
   <path type="path" class="style_m24" d="M 384 213 q 27 0 50 10 q 23 10 41 28 q 17 17 27 41 q 10 23 10 49 q 0 27 -10 50 q -10 23 -27 41 q -18 17 -41 27 q -23 10 -50 10 q -27 0 -50 -10 q -23 -10 -40 -27 q -18 -18 -28 -41 q -10 -23 -10 -50 q 0 -26 10 -49 q 10 -24 28 -41 q 17 -18 40 -28 q 23 -10 50 -10 m 0 214 q 18 0 34 -7 q 15 -7 27 -18 q 11 -12 18 -27 q 6 -16 6 -34 q 0 -35 -25 -60 q -25 -25 -60 -25 q -35 0 -60 25 q -25 25 -25 60 q 0 18 7 34 q 6 15 18 27 q 11 11 27 18 q 15 7 33 7 m 1323 42 q 26 0 50 10 q 23 10 41 28 q 17 17 27 41 q 10 23 10 49 q 0 27 -10 50 q -10 23 -27 41 q -18 17 -41 27 q -24 10 -50 10 q -27 0 -50 -10 q -23 -10 -40 -27 q -18 -18 -28 -41 q -10 -23 -10 -50 q 0 -26 10 -49 q 10 -24 28 -41 q 17 -18 40 -28 q 23 -10 50 -10 m 0 214 q 18 0 34 -7 q 15 -7 27 -18 q 11 -12 18 -27 q 6 -16 6 -34 q 0 -35 -25 -60 q -25 -25 -60 -25 q -18 0 -33 7 q -16 6 -27 18 q -12 11 -19 27 q -7 15 -7 33 q 0 18 7 34 q 7 15 19 27 q 11 11 27 18 q 15 7 33 7 m -939 298 q 27 0 50 10 q 23 10 41 28 q 17 17 27 41 q 10 23 10 49 q 0 27 -10 50 q -10 23 -27 41 q -18 17 -41 27 q -23 10 -50 10 q -27 0 -50 -10 q -23 -10 -40 -27 q -18 -18 -28 -41 q -10 -23 -10 -50 q 0 -26 10 -49 q 10 -24 28 -41 q 17 -18 40 -28 q 23 -10 50 -10 m 0 214 q 18 0 34 -7 q 15 -7 27 -18 q 11 -12 18 -27 q 6 -16 6 -34 q 0 -35 -25 -60 q -25 -25 -60 -25 q -35 0 -60 25 q -25 25 -25 60 q 0 18 7 34 q 6 15 18 27 q 11 11 27 18 q 15 7 33 7 m 427 128 q 26 0 50 10 q 23 10 41 28 q 17 17 27 40 q 10 23 10 50 q 0 26 -10 50 q -10 23 -27 41 q -18 17 -41 27 q -24 10 -50 10 q -27 0 -50 -10 q -23 -10 -40 -27 q -18 -18 -28 -41 q -10 -24 -10 -50 q 0 -27 10 -50 q 10 -23 28 -40 q 17 -18 40 -28 q 23 -10 50 -10 m 0 213 q 35 0 60 -25 q 25 -25 25 -60 q 0 -18 -6 -33 q -7 -16 -18 -27 q -12 -12 -27 -19 q -16 -7 -34 -7 q -18 0 -33 7 q -16 7 -27 19 q -12 11 -19 27 q -7 15 -7 33 q 0 18 7 34 q 7 15 19 27 q 11 11 27 18 q 15 6 33 6 z" />
   <path type="path" class="style_m22" d="M 1963 1920 v 43 h -1878 v -1878 h 43 v 1835 m 1579 -213 q -27 0 -50 -10 q -23 -10 -40 -27 q -18 -18 -28 -41 q -10 -24 -10 -50 q 0 -27 10 -50 q 10 -23 28 -40 q 17 -18 40 -28 q 23 -10 50 -10 q 26 0 50 10 q 23 10 41 28 q 17 17 27 40 q 10 23 10 50 q 0 26 -10 50 q -10 23 -27 41 q -18 17 -41 27 q -24 10 -50 10 m -854 -982 q -26 0 -49 -10 q -24 -10 -41 -27 q -18 -18 -28 -41 q -10 -23 -10 -50 q 0 -26 10 -49 q 10 -24 28 -41 q 17 -18 41 -28 q 23 -10 49 -10 q 27 0 50 10 q 23 10 41 28 q 17 17 27 41 q 10 23 10 49 q 0 27 -10 50 q -10 23 -27 41 q -18 17 -41 27 q -23 10 -50 10 m -469 982 q -27 0 -50 -10 q -23 -10 -40 -27 q -18 -18 -28 -41 q -10 -24 -10 -50 q 0 -27 10 -50 q 10 -23 28 -40 q 17 -18 40 -28 q 23 -10 50 -10 q 27 0 50 10 q 23 10 41 28 q 17 17 27 40 q 10 23 10 50 q 0 26 -10 50 q -10 23 -27 41 q -18 17 -41 27 q -23 10 -50 10 m 1024 -640 q -27 0 -50 -10 q -23 -10 -40 -27 q -18 -18 -28 -41 q -10 -24 -10 -50 q 0 -27 10 -50 q 10 -23 28 -40 q 17 -18 40 -28 q 23 -10 50 -10 q 27 0 50 10 q 23 10 41 28 q 17 17 27 40 q 10 23 10 50 q 0 26 -10 50 q -10 23 -27 41 q -18 17 -41 27 q -23 10 -50 10 z" />
</svg>