<?xml version="1.0" encoding="UTF-8"?>
<svg height="100%" width="100%" viewBox="0,0,2048,2048" focusable="false">
   <path type="path" class="style_HighContrast" d="M 128 1920 h 1835 v 43 h -1878 v -1878 h 43 m 1664 1501 q 37 13 61 46 q 24 33 24 75 q 0 26 -10 50 q -10 23 -27 41 q -18 17 -41 27 q -23 10 -50 10 q -26 0 -49 -10 q -24 -10 -41 -27 q -18 -18 -28 -41 q -10 -24 -10 -50 q 0 -27 10 -50 q 10 -23 28 -40 q 17 -18 40 -28 q 23 -10 50 -10 v -34 q 0 -140 -15 -248 q -16 -108 -42 -191 l -7 2 q -26 93 -66 161 q -40 68 -88 116 q -48 47 -101 76 q -54 29 -108 44 q -2 24 -13 46 q -11 21 -28 37 q -17 15 -39 24 q -22 9 -47 9 q -45 0 -78 -26 q -34 -26 -45 -66 q -115 -15 -221 -84 q -107 -69 -207 -190 q -36 91 -59 176 q -24 85 -38 152 q 41 12 67 46 q 26 33 26 78 q 0 26 -10 50 q -10 23 -27 41 q -18 17 -41 27 q -23 10 -50 10 q -27 0 -50 -10 q -23 -10 -40 -27 q -18 -18 -28 -41 q -10 -24 -10 -50 q 0 -26 10 -48 q 9 -23 25 -40 q 16 -18 38 -28 q 22 -10 47 -12 q 15 -73 42 -167 q 26 -95 69 -195 q -48 -62 -94 -141 q -47 -80 -89 -168 q -43 -88 -80 -178 q -37 -91 -64 -176 q -25 -2 -46 -12 q -22 -11 -37 -28 q -16 -17 -25 -39 q -9 -23 -9 -48 q 0 -27 10 -50 q 10 -23 28 -40 q 17 -18 40 -28 q 23 -10 50 -10 q 26 0 50 10 q 23 10 41 28 q 17 17 27 40 q 10 23 10 50 q 0 45 -26 79 q -27 33 -69 44 q 19 59 48 135 q 29 75 67 158 q 37 82 84 167 q 47 85 103 163 q 33 -72 76 -141 q 42 -70 96 -131 q -38 -36 -38 -90 q 0 -27 10 -50 q 10 -23 28 -40 q 17 -18 40 -28 q 23 -10 50 -10 q 35 0 64 17 q 28 16 45 43 q 63 -32 133 -48 q 70 -17 154 -17 q 6 0 39 4 q 32 3 79 21 q 47 17 102 54 q 55 37 107 105 q 21 -9 45 -9 q 5 0 9 1 q 3 0 7 0 q 1 -20 2 -40 q 0 -21 0 -43 q 0 -174 -33 -390 q -14 3 -28 3 q -26 0 -49 -10 q -24 -10 -41 -27 q -18 -18 -28 -41 q -10 -23 -10 -50 q 0 -27 10 -50 q 10 -23 28 -40 q 17 -18 41 -28 q 23 -10 49 -10 q 27 0 50 10 q 23 10 41 28 q 17 17 27 40 q 10 23 10 50 q 0 35 -16 64 q -17 28 -44 45 q 18 113 27 215 q 8 102 8 193 q 0 25 0 48 q 0 23 -2 46 q 32 16 51 46 q 19 30 19 68 q 0 35 -16 63 q -17 28 -43 45 q 30 96 45 210 q 14 114 14 248 m -171 -1206 q 18 0 34 -6 q 15 -7 27 -18 q 11 -12 18 -27 q 7 -16 7 -34 q 0 -18 -7 -33 q -7 -16 -18 -27 q -12 -12 -27 -18 q -16 -7 -34 -7 q -35 0 -60 25 q -25 25 -25 60 q 0 35 25 60 q 25 25 60 25 m -1408 86 q 0 18 7 34 q 7 15 19 27 q 11 11 27 18 q 15 6 33 6 q 35 0 60 -25 q 25 -25 25 -60 q 0 -18 -6 -33 q -7 -16 -18 -27 q -12 -12 -27 -19 q -16 -7 -34 -7 q -18 0 -33 7 q -16 7 -27 19 q -12 11 -19 27 q -7 15 -7 33 m 982 1152 q 35 0 60 -25 q 25 -25 25 -61 q 0 -35 -25 -60 q -25 -25 -60 -25 q -18 0 -33 7 q -16 6 -27 18 q -12 11 -19 27 q -7 15 -7 33 q 0 18 7 34 q 7 15 19 27 q 11 12 27 19 q 15 6 33 6 m 354 -278 q 59 -80 92 -194 q -23 -4 -42 -15 q -19 -12 -33 -28 q -14 -17 -22 -38 q -8 -21 -8 -45 q 0 -29 13 -54 q 12 -26 32 -43 q -45 -61 -95 -94 q -51 -34 -93 -49 q -43 -15 -71 -17 q -29 -3 -31 -3 q -78 0 -144 16 q -67 15 -126 46 q 3 14 3 28 q 0 26 -10 50 q -10 23 -27 41 q -18 17 -41 27 q -23 10 -50 10 q -29 0 -55 -13 q -57 63 -101 136 q -44 73 -77 150 q 41 53 87 99 q 45 46 96 82 q 50 36 106 60 q 55 23 115 32 q 1 -25 12 -47 q 11 -22 28 -38 q 17 -16 40 -25 q 22 -10 48 -10 q 45 0 79 28 q 34 27 45 69 q 61 -19 120 -56 q 59 -37 110 -105 z" />
   <path type="path" class="style_m20" d="M 1305 1497 q 0 23 -8 43 q -9 20 -24 35 q -15 15 -35 24 q -20 8 -43 8 q -23 0 -43 -8 q -20 -9 -35 -24 q -15 -15 -23 -35 q -9 -20 -9 -43 q 0 -23 9 -43 q 8 -20 23 -35 q 15 -15 35 -23 q 20 -9 43 -9 q 23 0 43 9 q 20 8 35 23 q 15 15 24 35 q 8 20 8 43 m -890 -1072 q 0 23 -9 43 q -9 20 -24 35 q -15 15 -35 24 q -20 8 -42 8 q -23 0 -43 -8 q -20 -9 -35 -24 q -15 -15 -23 -35 q -9 -20 -9 -43 q 0 -23 9 -43 q 8 -20 23 -35 q 15 -15 35 -23 q 20 -9 43 -9 q 22 0 42 9 q 20 8 35 23 q 15 15 24 35 q 9 20 9 43 m 1317 -167 q 0 23 -8 43 q -9 20 -24 35 q -15 15 -35 24 q -20 8 -43 8 q -23 0 -43 -8 q -20 -9 -35 -24 q -15 -15 -23 -35 q -9 -20 -9 -43 q 0 -23 9 -43 q 8 -20 23 -35 q 15 -15 35 -23 q 20 -9 43 -9 q 23 0 43 9 q 20 8 35 23 q 15 15 24 35 q 8 20 8 43 z" />
   <path type="path" class="style_m24" d="M 1689 365 q 18 112 27 213 q 8 101 8 193 q 0 183 -35 322 q -35 138 -106 234 q -29 38 -60 67 q -32 29 -65 51 q -34 21 -68 36 q -35 14 -68 24 q -2 24 -13 46 q -11 21 -28 37 q -17 15 -39 24 q -22 9 -47 9 q -45 0 -78 -26 q -34 -26 -45 -66 q -114 -15 -224 -87 q -110 -72 -211 -196 q -101 -125 -189 -299 q -89 -174 -160 -393 q -25 -2 -46 -12 q -22 -11 -37 -28 q -16 -17 -25 -39 q -9 -23 -9 -48 q 0 -27 10 -50 q 10 -23 28 -40 q 17 -18 40 -28 q 23 -10 50 -10 q 26 0 50 10 q 23 10 41 28 q 17 17 27 40 q 10 23 10 50 q 0 45 -26 79 q -27 33 -69 44 q 23 69 59 161 q 35 92 83 191 q 48 99 109 197 q 61 98 136 179 q 74 81 161 137 q 87 55 187 70 q 1 -25 12 -47 q 11 -22 28 -38 q 17 -16 40 -25 q 22 -10 48 -10 q 45 0 79 28 q 34 27 45 69 q 61 -19 120 -56 q 59 -37 110 -105 q 133 -178 133 -530 q 0 -174 -33 -390 q -14 3 -28 3 q -26 0 -49 -10 q -24 -10 -41 -27 q -18 -18 -28 -41 q -10 -23 -10 -50 q 0 -27 10 -50 q 10 -23 28 -40 q 17 -18 41 -28 q 23 -10 49 -10 q 27 0 50 10 q 23 10 41 28 q 17 17 27 40 q 10 23 10 50 q 0 35 -16 64 q -17 28 -44 45 m -1476 62 q 0 18 7 34 q 7 15 19 27 q 11 11 27 18 q 15 6 33 6 q 35 0 60 -25 q 25 -25 25 -60 q 0 -18 -6 -33 q -7 -16 -18 -27 q -12 -12 -27 -19 q -16 -7 -34 -7 q -18 0 -33 7 q -16 7 -27 19 q -12 11 -19 27 q -7 15 -7 33 m 982 1152 q 35 0 60 -25 q 25 -25 25 -61 q 0 -35 -25 -60 q -25 -25 -60 -25 q -18 0 -33 7 q -16 6 -27 18 q -12 11 -19 27 q -7 15 -7 33 q 0 18 7 34 q 7 15 19 27 q 11 12 27 19 q 15 6 33 6 m 341 -1323 q 0 35 25 60 q 25 25 60 25 q 18 0 34 -6 q 15 -7 27 -18 q 11 -12 18 -27 q 7 -16 7 -34 q 0 -18 -7 -33 q -7 -16 -18 -27 q -12 -12 -27 -18 q -16 -7 -34 -7 q -35 0 -60 25 q -25 25 -25 60 z" />
   <path type="path" class="style_m22" d="M 128 1920 h 1835 v 43 h -1878 v -1878 h 43 m 1664 1501 q 37 13 61 46 q 24 33 24 75 q 0 26 -10 50 q -10 23 -27 41 q -18 17 -41 27 q -23 10 -50 10 q -26 0 -49 -10 q -24 -10 -41 -27 q -18 -18 -28 -41 q -10 -24 -10 -50 q 0 -27 10 -50 q 10 -23 28 -40 q 17 -18 40 -28 q 23 -10 50 -10 v -34 q 0 -140 -15 -248 q -16 -108 -42 -191 q -14 3 -28 3 q -27 0 -50 -10 q -23 -10 -40 -27 q -18 -18 -28 -41 q -10 -23 -10 -50 q 0 -29 13 -54 q 12 -26 32 -43 q -45 -61 -95 -94 q -51 -34 -93 -49 q -43 -15 -71 -17 q -29 -3 -31 -3 q -78 0 -144 16 q -67 15 -126 46 q 3 14 3 28 q 0 26 -10 50 q -10 23 -27 41 q -18 17 -41 27 q -23 10 -50 10 q -29 0 -55 -13 q -66 73 -115 161 q -49 87 -84 176 q -35 88 -58 172 q -24 83 -37 148 q 41 12 67 46 q 26 33 26 78 q 0 26 -10 50 q -10 23 -27 41 q -18 17 -41 27 q -23 10 -50 10 q -27 0 -50 -10 q -23 -10 -40 -27 q -18 -18 -28 -41 q -10 -24 -10 -50 q 0 -26 10 -48 q 9 -23 25 -40 q 16 -18 38 -28 q 22 -10 47 -12 q 14 -67 38 -152 q 23 -86 59 -177 q 36 -92 87 -182 q 50 -90 118 -167 q -38 -36 -38 -90 q 0 -27 10 -50 q 10 -23 28 -40 q 17 -18 40 -28 q 23 -10 50 -10 q 35 0 64 17 q 28 16 45 43 q 63 -32 133 -48 q 70 -17 154 -17 q 6 0 39 4 q 32 3 79 21 q 47 17 102 54 q 55 37 107 105 q 21 -9 45 -9 q 27 0 50 10 q 23 10 41 28 q 17 17 27 41 q 10 23 10 49 q 0 35 -16 63 q -17 28 -43 45 q 30 96 45 210 q 14 114 14 248 z" />
</svg>