<?xml version="1.0" encoding="UTF-8"?>
<svg height="100%" width="100%" viewBox="0,0,2048,2048" focusable="false">
   <path type="path" class="style_HighContrast" d="M 1503 1457 l -10 61 l -42 -6 l 16 -96 l -334 -380 l -309 389 l -72 -147 l -248 421 l -37 -21 l 262 -446 l -463 -951 l 39 -18 l 451 925 l 227 -387 l 149 168 l 564 -710 l -184 1143 l 263 299 l -68 -525 l 42 -5 l 83 661 m -728 -828 l -114 -130 l -212 360 l 54 112 m 644 14 l 155 -951 l -471 593 m 803 918 v 43 h -1878 v -1878 h 43 v 1835 z" />
   <path type="path" class="style_m24" d="M 1493 1518 l -42 -6 l 180 -1103 l -807 1016 l -558 -1144 l 39 -18 l 527 1083 l 864 -1087 z" />
   <path type="path" class="style_m22" d="M 1832 1832 l -842 -958 l -486 825 l -37 -21 l 516 -877 l 792 900 l -68 -525 l 42 -5 m 214 749 v 43 h -1878 v -1878 h 43 v 1835 z" />
</svg>