<?xml version="1.0" encoding="UTF-8"?>
<svg height="100%" width="100%" viewBox="0,0,2048,2048" focusable="false">
   <path type="path" class="style_HighContrast" d="M 1963 1920 v 43 h -1878 v -1878 h 43 v 1835 m 1577 -902 q 93 215 93 547 q 0 88 -6 184 l -43 -3 q 3 -47 5 -92 q 2 -45 2 -88 q 0 -277 -68 -470 q -25 97 -65 167 q -40 70 -89 119 q -49 48 -104 78 q -55 29 -108 46 q -54 16 -103 22 q -49 5 -87 5 q -74 0 -141 -21 q -68 -21 -129 -58 q -62 -37 -116 -88 q -55 -51 -104 -111 q -39 93 -64 181 q -25 88 -40 157 q -15 69 -21 112 q -6 42 -6 44 l -42 -4 q 0 -2 7 -48 q 6 -46 23 -120 q 16 -74 44 -168 q 27 -94 70 -192 q -60 -79 -109 -167 q -50 -88 -90 -174 q -40 -86 -70 -164 q -30 -79 -50 -141 q -21 -62 -32 -102 q -11 -40 -13 -47 l 42 -11 q 0 2 10 37 q 10 35 29 93 q 19 58 48 135 q 28 76 66 160 q 38 83 86 170 q 47 86 104 165 q 45 -96 106 -184 q 61 -89 142 -156 q 80 -68 181 -108 q 101 -40 227 -40 q 3 0 22 2 q 19 1 49 9 q 30 8 68 25 q 38 16 80 46 q 41 29 83 75 q 42 46 80 112 q 5 -42 8 -87 q 2 -45 2 -93 q 0 -243 -64 -562 l 42 -8 q 65 325 65 569 q 0 68 -5 130 q -5 61 -15 117 m -156 283 q 79 -106 111 -275 q -33 -74 -72 -125 q -40 -51 -81 -84 q -41 -34 -80 -52 q -39 -19 -69 -27 q -31 -9 -49 -11 q -19 -2 -20 -2 q -121 0 -218 41 q -97 40 -173 107 q -77 67 -135 155 q -58 87 -101 181 q 47 60 100 112 q 53 51 112 89 q 58 37 123 59 q 65 21 136 21 q 45 0 99 -7 q 54 -7 110 -27 q 55 -21 109 -58 q 54 -37 98 -97 z" />
   <path type="path" class="style_m24" d="M 1792 1749 l -43 -3 q 6 -93 6 -178 q 0 -244 -51 -422 q -51 -179 -152 -287 q -47 -49 -93 -76 q -46 -28 -83 -40 q -38 -13 -62 -15 q -24 -3 -25 -3 q -124 0 -223 44 q -99 43 -177 114 q -78 71 -136 162 q -58 90 -100 186 q -42 95 -69 187 q -28 91 -44 164 q -16 72 -22 118 q -7 46 -7 49 l -42 -4 q 0 -3 5 -34 q 4 -32 14 -84 q 10 -52 27 -120 q 17 -68 43 -144 q 25 -76 60 -156 q 35 -80 82 -155 q 46 -76 105 -143 q 58 -67 131 -117 q 73 -51 161 -80 q 88 -29 193 -29 q 3 0 30 3 q 27 2 69 16 q 41 14 92 44 q 51 30 102 84 q 216 231 216 735 q 0 45 -2 91 q -2 45 -5 93 z" />
   <path type="path" class="style_m22" d="M 1963 1920 v 43 h -1878 v -1878 h 43 v 1835 m 1004 -387 q -111 0 -207 -46 q -97 -46 -179 -121 q -83 -75 -151 -172 q -68 -97 -122 -199 q -55 -102 -96 -201 q -41 -99 -68 -178 q -28 -80 -43 -132 q -15 -53 -17 -62 l 42 -11 q 1 2 14 50 q 13 47 40 124 q 26 76 66 173 q 39 96 91 197 q 52 101 118 197 q 65 96 144 171 q 79 75 171 121 q 92 46 197 46 q 45 0 99 -7 q 54 -7 110 -27 q 56 -21 110 -58 q 54 -37 98 -97 q 133 -180 133 -528 q 0 -121 -16 -261 q -16 -141 -48 -302 l 42 -8 q 65 325 65 569 q 0 364 -142 556 q -50 67 -111 108 q -62 40 -123 62 q -62 22 -119 29 q -57 7 -98 7 z" />
</svg>