<?xml version="1.0" encoding="UTF-8"?>
<svg height="100%" width="100%" viewBox="0,0,2048,2048" focusable="false">
   <path type="path" class="style_HighContrast" d="M 128 1920 h 1835 v 43 h -1878 v -1878 h 43 m 213 342 q -26 0 -49 -10 q -24 -10 -41 -27 q -18 -18 -28 -41 q -10 -24 -10 -50 q 0 -27 10 -50 q 10 -23 28 -40 q 17 -18 41 -28 q 23 -10 49 -10 q 27 0 50 10 q 23 10 41 28 q 17 17 27 40 q 10 23 10 50 q 0 34 -16 63 q -17 28 -44 45 l 361 762 l 165 -282 q -36 -14 -59 -46 q -23 -32 -23 -73 q 0 -27 10 -50 q 10 -23 28 -40 q 17 -18 41 -28 q 23 -10 49 -10 q 27 0 50 10 q 23 10 41 28 q 17 17 27 40 q 10 23 10 50 q 0 34 -16 62 q -16 28 -42 45 l 78 89 l 449 -570 q -20 -18 -31 -42 q -11 -25 -11 -53 q 0 -27 10 -50 q 10 -23 28 -40 q 17 -18 40 -28 q 23 -10 50 -10 q 27 0 50 10 q 23 10 41 28 q 17 17 27 40 q 10 23 10 50 q 0 26 -10 50 q -10 23 -27 41 q -18 17 -41 27 q -23 10 -50 10 q -11 0 -20 -2 q -10 -2 -19 -5 l -258 814 l 410 467 l -54 -422 q -5 1 -8 1 q -4 0 -8 0 q -27 0 -50 -10 q -23 -10 -40 -27 q -18 -18 -28 -41 q -10 -23 -10 -50 q 0 -27 10 -50 q 10 -23 28 -40 q 17 -18 40 -28 q 23 -10 50 -10 q 26 0 50 10 q 23 10 41 28 q 17 17 27 40 q 10 23 10 50 q 0 38 -19 69 q -20 30 -52 46 l 70 565 l -482 -549 l -46 145 q 26 17 43 45 q 16 28 16 63 q 0 27 -10 50 q -10 23 -27 41 q -18 17 -41 27 q -23 10 -50 10 q -26 0 -49 -10 q -24 -10 -41 -27 q -18 -18 -28 -41 q -10 -23 -10 -50 q 0 -27 10 -50 q 10 -23 28 -40 q 17 -18 41 -28 q 23 -10 49 -10 q 15 0 29 3 l 53 -166 l -189 -214 l -295 375 l -69 -146 l -147 251 q 29 17 47 46 q 17 29 17 64 q 0 27 -10 50 q -10 23 -27 41 q -18 17 -41 27 q -24 10 -50 10 q -27 0 -50 -10 q -23 -10 -40 -27 q -18 -18 -28 -41 q -10 -23 -10 -50 q 0 -26 10 -49 q 10 -24 28 -41 q 17 -18 40 -28 q 23 -10 50 -10 q 11 0 23 3 l 166 -283 l -375 -789 q -14 3 -28 3 m 982 1109 q 0 -18 -7 -33 q -7 -16 -18 -27 q -12 -12 -27 -18 q -16 -7 -34 -7 q -35 0 -60 25 q -25 25 -25 60 q 0 35 25 60 q 25 25 60 25 q 18 0 34 -6 q 15 -7 27 -18 q 11 -12 18 -27 q 7 -16 7 -34 m 341 -1323 q -18 0 -33 7 q -16 7 -27 19 q -12 11 -18 27 q -7 15 -7 33 q 0 35 25 60 q 25 25 60 25 q 35 0 60 -25 q 25 -25 25 -60 q 0 -18 -6 -33 q -7 -16 -18 -27 q -12 -12 -27 -19 q -16 -7 -34 -7 m -105 275 l -401 509 l 176 200 m -355 -301 l -187 301 l 52 129 l 258 -327 l -93 -106 q -15 3 -30 3 m -638 -683 q -18 0 -33 7 q -16 7 -27 19 q -12 11 -18 27 q -7 15 -7 33 q 0 35 25 60 q 25 25 60 25 q 18 0 34 -6 q 15 -7 27 -18 q 11 -12 18 -27 q 7 -16 7 -34 q 0 -18 -7 -33 q -7 -16 -18 -27 q -12 -12 -27 -19 q -16 -7 -34 -7 z" />
   <path type="path" class="style_m20" d="M 1771 296 q 0 22 -8 42 q -9 19 -23 34 q -15 15 -35 24 q -20 8 -42 8 q -22 0 -41 -8 q -20 -9 -34 -24 q -15 -15 -23 -34 q -9 -20 -9 -42 q 0 -22 9 -41 q 8 -20 23 -34 q 14 -15 34 -23 q 19 -9 41 -9 q 22 0 42 9 q 20 8 35 23 q 14 14 23 34 q 8 19 8 41 m -1320 7 q 0 22 -8 42 q -9 19 -23 34 q -15 15 -34 24 q -20 8 -42 8 q -22 0 -41 -8 q -20 -9 -35 -24 q -15 -15 -23 -34 q -9 -20 -9 -42 q 0 -22 9 -41 q 8 -20 23 -34 q 15 -15 35 -23 q 19 -9 41 -9 q 22 0 42 9 q 19 8 34 23 q 14 14 23 34 q 8 19 8 41 m 902 1232 q 0 23 -8 43 q -9 19 -23 34 q -15 14 -35 23 q -20 8 -42 8 q -22 0 -41 -8 q -20 -9 -34 -23 q -15 -15 -23 -34 q -9 -20 -9 -43 q 0 -22 9 -41 q 8 -20 23 -34 q 14 -15 34 -23 q 19 -9 41 -9 q 22 0 42 9 q 20 8 35 23 q 14 14 23 34 q 8 19 8 41 z" />
   <path type="path" class="style_m24" d="M 1664 171 q 27 0 50 10 q 23 10 41 28 q 17 17 27 40 q 10 23 10 50 q 0 26 -10 50 q -10 23 -27 41 q -18 17 -41 27 q -23 10 -50 10 q -11 0 -20 -2 q -10 -2 -19 -5 l -319 1008 q 26 17 43 45 q 16 28 16 63 q 0 27 -10 50 q -10 23 -27 41 q -18 17 -41 27 q -23 10 -50 10 q -26 0 -49 -10 q -24 -10 -41 -27 q -18 -18 -28 -41 q -10 -23 -10 -50 q 0 -27 10 -50 q 10 -23 28 -40 q 17 -18 41 -28 q 23 -10 49 -10 q 15 0 29 3 l 293 -923 l -724 918 l -466 -982 q -14 3 -28 3 q -26 0 -49 -10 q -24 -10 -41 -27 q -18 -18 -28 -41 q -10 -24 -10 -50 q 0 -27 10 -50 q 10 -23 28 -40 q 17 -18 41 -28 q 23 -10 49 -10 q 27 0 50 10 q 23 10 41 28 q 17 17 27 40 q 10 23 10 50 q 0 34 -16 63 q -17 28 -44 45 l 435 919 l 734 -932 q -20 -18 -31 -42 q -11 -25 -11 -53 q 0 -27 10 -50 q 10 -23 28 -40 q 17 -18 40 -28 q 23 -10 50 -10 m -1323 213 q 18 0 34 -6 q 15 -7 27 -18 q 11 -12 18 -27 q 7 -16 7 -34 q 0 -18 -7 -33 q -7 -16 -18 -27 q -12 -12 -27 -19 q -16 -7 -34 -7 q -18 0 -33 7 q -16 7 -27 19 q -12 11 -18 27 q -7 15 -7 33 q 0 35 25 60 q 25 25 60 25 m 982 1152 q 0 -18 -7 -33 q -7 -16 -18 -27 q -12 -12 -27 -18 q -16 -7 -34 -7 q -35 0 -60 25 q -25 25 -25 60 q 0 35 25 60 q 25 25 60 25 q 18 0 34 -6 q 15 -7 27 -18 q 11 -12 18 -27 q 7 -16 7 -34 m 341 -1152 q 35 0 60 -25 q 25 -25 25 -60 q 0 -18 -6 -33 q -7 -16 -18 -27 q -12 -12 -27 -19 q -16 -7 -34 -7 q -18 0 -33 7 q -16 7 -27 19 q -12 11 -18 27 q -7 15 -7 33 q 0 35 25 60 q 25 25 60 25 z" />
   <path type="path" class="style_m22" d="M 128 1920 h 1835 v 43 h -1878 v -1878 h 43 m 1636 1182 l 70 565 l -825 -939 q -15 3 -30 3 l -360 615 q 29 17 47 46 q 17 29 17 64 q 0 27 -10 50 q -10 23 -27 41 q -18 17 -41 27 q -24 10 -50 10 q -27 0 -50 -10 q -23 -10 -40 -27 q -18 -18 -28 -41 q -10 -23 -10 -50 q 0 -26 10 -49 q 10 -24 28 -41 q 17 -18 40 -28 q 23 -10 50 -10 q 11 0 23 3 l 357 -609 q -36 -14 -59 -46 q -23 -32 -23 -73 q 0 -27 10 -50 q 10 -23 28 -40 q 17 -18 41 -28 q 23 -10 49 -10 q 27 0 50 10 q 23 10 41 28 q 17 17 27 40 q 10 23 10 50 q 0 34 -16 62 q -16 28 -42 45 l 726 826 l -54 -422 q -5 1 -8 1 q -4 0 -8 0 q -27 0 -50 -10 q -23 -10 -40 -27 q -18 -18 -28 -41 q -10 -23 -10 -50 q 0 -27 10 -50 q 10 -23 28 -40 q 17 -18 40 -28 q 23 -10 50 -10 q 26 0 50 10 q 23 10 41 28 q 17 17 27 40 q 10 23 10 50 q 0 38 -19 69 q -20 30 -52 46 z" />
</svg>